# Blender v2.79 (sub 0) OBJ File: 'CubeMy4.blend'
# www.blender.org
mtllib CubeMy4.mtl
o Cube
v 0.550000 -0.550000 -0.550000
v 0.550000 -0.550000 0.550000
v -0.550000 -0.550000 0.550000
v -0.550000 -0.550000 -0.550000
v 0.550000 0.550000 -0.550000
v 0.550000 0.550000 0.550000
v -0.550000 0.550000 0.550000
v -0.550000 0.550000 -0.550000
v 0.500000 -0.500000 -0.166667
v 0.500000 -0.500000 0.166667
v 0.166667 -0.500000 -0.500000
v -0.166667 -0.500000 -0.500000
v 0.500000 -0.166667 -0.500000
v 0.500000 0.166667 -0.500000
v 0.166667 -0.500000 0.500000
v -0.166667 -0.500000 0.500000
v 0.500000 -0.166667 0.500000
v 0.500000 0.166667 0.500000
v -0.500000 -0.500000 0.166667
v -0.500000 -0.500000 -0.166667
v -0.500000 -0.166667 0.500000
v -0.500000 0.166667 0.500000
v -0.500000 -0.166667 -0.500000
v -0.500000 0.166667 -0.500000
v 0.500000 0.500000 -0.166666
v 0.500000 0.500000 0.166667
v 0.166667 0.500000 -0.500000
v -0.166667 0.500000 -0.500000
v 0.166666 0.500000 0.500000
v -0.166667 0.500000 0.500000
v -0.500000 0.500000 0.166667
v -0.500000 0.500000 -0.166667
v 0.150000 0.150000 -0.450000
v -0.150000 0.150000 -0.450000
v 0.150000 -0.150000 -0.450000
v -0.150000 -0.150000 -0.450000
v -0.450000 -0.150000 0.150000
v -0.450000 -0.150000 -0.150000
v -0.450000 0.150000 0.150000
v -0.450000 0.150000 -0.150000
v 0.150000 -0.150000 0.450000
v -0.150000 -0.150000 0.450000
v 0.150000 0.150000 0.450000
v -0.150000 0.150000 0.450000
v 0.450000 -0.150000 -0.150000
v 0.450000 -0.150000 0.150000
v 0.450000 0.150000 -0.150000
v 0.450000 0.150000 0.150000
v 0.150000 0.450000 -0.150000
v 0.150000 0.450000 0.150000
v -0.150000 0.450000 -0.150000
v -0.150000 0.450000 0.150000
v 0.150000 -0.450000 -0.150000
v -0.150000 -0.450000 -0.150000
v 0.150000 -0.450000 0.150000
v -0.150000 -0.450000 0.150000
vn -0.9846 0.1108 0.1354
vn 0.1354 -0.9846 -0.1108
vn 0.1414 0.0000 -0.9899
vn 0.1339 0.1339 -0.9819
vn 0.0000 -0.1414 -0.9899
vn -0.1414 0.0000 -0.9899
vn 0.0000 0.0000 -1.0000
vn 0.0000 0.1414 -0.9899
vn -0.9899 -0.0000 0.1414
vn -0.9899 0.1414 -0.0000
vn -0.9899 -0.0000 -0.1414
vn -1.0000 0.0000 -0.0000
vn 0.1108 -0.9846 -0.1354
vn -0.9899 -0.1414 -0.0000
vn 0.1414 0.0000 0.9899
vn 0.0000 0.1414 0.9899
vn -0.1414 -0.0000 0.9899
vn 0.0000 -0.0000 1.0000
vn -0.9846 0.1354 0.1108
vn -0.0000 -0.1414 0.9899
vn 0.9899 0.0000 -0.1414
vn 0.9899 0.1414 0.0000
vn 0.9899 0.0000 0.1414
vn 1.0000 0.0000 0.0000
vn 0.1108 -0.9846 0.1354
vn 0.9899 -0.1414 0.0000
vn 0.1139 0.1139 -0.9869
vn 0.0000 0.9899 -0.1414
vn 0.1354 -0.9846 0.1108
vn -0.1414 0.9899 0.0000
vn -0.0000 0.9899 0.1414
vn 0.0000 1.0000 -0.0000
vn 0.1414 0.9899 0.0000
vn 0.1414 -0.9899 0.0000
vn -0.0000 -0.9899 0.1414
vn -0.1414 -0.9899 -0.0000
vn 0.0000 -1.0000 -0.0000
vn 0.0000 -0.9899 -0.1414
vn -0.1354 -0.9846 0.1108
vn -0.1108 -0.9846 0.1354
vn -0.1354 -0.9846 -0.1108
vn -0.1108 -0.9846 -0.1354
vn -0.9846 -0.1354 0.1108
vn -0.9846 -0.1108 0.1354
vn -0.9846 -0.1108 -0.1354
vn -0.9846 -0.1354 -0.1108
vn -0.9846 0.1108 -0.1354
vn -0.9846 0.1354 -0.1108
vn -0.1108 0.1354 0.9846
vn -0.1354 0.1108 0.9846
vn -0.1354 -0.1108 0.9846
vn -0.1108 -0.1354 0.9846
vn 0.1108 -0.1354 0.9846
vn 0.1354 -0.1108 0.9846
vn 0.1108 0.1354 0.9846
vn 0.1354 0.1108 0.9846
vn -0.1108 0.9846 -0.1354
vn -0.1354 0.9846 -0.1108
vn 0.1108 0.9846 -0.1354
vn 0.1354 0.9846 -0.1108
vn -0.1354 0.9846 0.1108
vn -0.1108 0.9846 0.1354
vn 0.1108 0.9846 0.1354
vn 0.1354 0.9846 0.1108
vn -0.1354 -0.1108 -0.9846
vn -0.1108 -0.1354 -0.9846
vn 0.1108 -0.1354 -0.9846
vn 0.1354 -0.1108 -0.9846
vn -0.1354 0.1108 -0.9846
vn -0.1108 0.1354 -0.9846
vn 0.9846 0.1108 0.1354
vn 0.9846 0.1354 0.1108
vn 0.9846 0.1108 -0.1354
vn 0.9846 0.1354 -0.1108
vn 0.9846 -0.1108 -0.1354
vn 0.9846 -0.1354 -0.1108
vn 0.9846 -0.1354 0.1108
vn 0.9846 -0.1108 0.1354
usemtl Material
s off
f 23/1/1 4/1/1 38/1/1
f 19/1/2 56/1/2 3/1/2
f 34/1/3 23/1/3 24/1/3
f 36/1/4 12/1/4 23/1/4
f 27/1/5 34/1/5 28/1/5
f 14/1/6 35/1/6 33/1/6
f 33/1/7 36/1/7 34/1/7
f 35/1/8 12/1/8 36/1/8
f 38/1/9 24/1/9 23/1/9
f 19/1/10 38/1/10 20/1/10
f 21/1/11 39/1/11 37/1/11
f 37/1/12 40/1/12 38/1/12
f 3/1/13 56/1/13 16/1/13
f 39/1/14 32/1/14 40/1/14
f 42/1/15 22/1/15 21/1/15
f 15/1/16 42/1/16 16/1/16
f 17/1/17 43/1/17 41/1/17
f 41/1/18 44/1/18 42/1/18
f 20/1/19 38/1/19 4/1/19
f 43/1/20 30/1/20 44/1/20
f 46/1/21 18/1/21 17/1/21
f 9/1/22 46/1/22 10/1/22
f 13/1/23 47/1/23 45/1/23
f 45/1/24 48/1/24 46/1/24
f 12/1/25 54/1/25 4/1/25
f 47/1/26 26/1/26 48/1/26
f 12/1/27 4/1/27 23/1/27
f 50/1/28 30/1/28 29/1/28
f 20/1/29 4/1/29 54/1/29
f 25/1/30 50/1/30 26/1/30
f 27/1/31 51/1/31 49/1/31
f 49/1/32 52/1/32 50/1/32
f 51/1/33 31/1/33 52/1/33
f 54/1/34 19/1/34 20/1/34
f 11/1/35 54/1/35 12/1/35
f 9/1/36 55/1/36 53/1/36
f 53/1/37 56/1/37 54/1/37
f 55/1/38 16/1/38 56/1/38
f 34/1/3 36/1/3 23/1/3
f 27/1/5 33/1/5 34/1/5
f 14/1/6 13/1/6 35/1/6
f 33/1/7 35/1/7 36/1/7
f 35/1/8 11/1/8 12/1/8
f 38/1/9 40/1/9 24/1/9
f 19/1/10 37/1/10 38/1/10
f 21/1/11 22/1/11 39/1/11
f 37/1/12 39/1/12 40/1/12
f 39/1/14 31/1/14 32/1/14
f 42/1/15 44/1/15 22/1/15
f 15/1/16 41/1/16 42/1/16
f 17/1/17 18/1/17 43/1/17
f 41/1/18 43/1/18 44/1/18
f 43/1/20 29/1/20 30/1/20
f 46/1/21 48/1/21 18/1/21
f 9/1/22 45/1/22 46/1/22
f 13/1/23 14/1/23 47/1/23
f 45/1/24 47/1/24 48/1/24
f 47/1/26 25/1/26 26/1/26
f 50/1/28 52/1/28 30/1/28
f 25/1/30 49/1/30 50/1/30
f 27/1/31 28/1/31 51/1/31
f 49/1/32 51/1/32 52/1/32
f 51/1/33 32/1/33 31/1/33
f 54/1/34 56/1/34 19/1/34
f 11/1/35 53/1/35 54/1/35
f 9/1/36 10/1/36 55/1/36
f 53/1/37 55/1/37 56/1/37
f 55/1/38 15/1/38 16/1/38
f 9/1/39 53/1/39 1/1/39
f 11/1/40 1/1/40 53/1/40
f 2/1/41 55/1/41 10/1/41
f 15/1/42 55/1/42 2/1/42
f 8/1/43 40/1/43 32/1/43
f 24/1/44 40/1/44 8/1/44
f 7/1/45 39/1/45 22/1/45
f 31/1/46 39/1/46 7/1/46
f 21/1/47 37/1/47 3/1/47
f 19/1/48 3/1/48 37/1/48
f 15/1/49 2/1/49 41/1/49
f 17/1/50 41/1/50 2/1/50
f 6/1/51 43/1/51 18/1/51
f 29/1/52 43/1/52 6/1/52
f 7/1/53 44/1/53 30/1/53
f 22/1/54 44/1/54 7/1/54
f 16/1/55 42/1/55 3/1/55
f 21/1/56 3/1/56 42/1/56
f 29/1/57 6/1/57 50/1/57
f 26/1/58 50/1/58 6/1/58
f 30/1/59 52/1/59 7/1/59
f 31/1/60 7/1/60 52/1/60
f 25/1/61 5/1/61 49/1/61
f 27/1/62 49/1/62 5/1/62
f 8/1/63 51/1/63 28/1/63
f 8/1/64 32/1/64 51/1/64
f 5/1/65 14/1/65 33/1/65
f 27/1/66 5/1/66 33/1/66
f 28/1/67 34/1/67 8/1/67
f 24/1/68 8/1/68 34/1/68
f 13/1/69 1/1/69 35/1/69
f 11/1/70 35/1/70 1/1/70
f 13/1/71 45/1/71 1/1/71
f 9/1/72 1/1/72 45/1/72
f 17/1/73 2/1/73 46/1/73
f 10/1/74 46/1/74 2/1/74
f 18/1/75 48/1/75 6/1/75
f 6/1/76 48/1/76 26/1/76
f 25/1/77 47/1/77 5/1/77
f 5/1/78 47/1/78 14/1/78
